<svg xmlns="http://www.w3.org/2000/svg" viewBox="0 0 1024 1024" fill="none">
  <defs>
    <linearGradient id="mac-bg" x1="512" y1="100" x2="512" y2="924" gradientUnits="userSpaceOnUse">
      <stop offset="0" stop-color="#2e2825" />
      <stop offset="1" stop-color="#100e0d" />
    </linearGradient>
    <linearGradient id="mac-rim" x1="512" y1="100" x2="512" y2="924" gradientUnits="userSpaceOnUse">
      <stop offset="0" stop-color="#ffffff" stop-opacity=".26" />
      <stop offset=".5" stop-color="#ffffff" stop-opacity=".05" />
      <stop offset="1" stop-color="#000000" stop-opacity=".42" />
    </linearGradient>
    <linearGradient id="mac-sheen" x1="512" y1="100" x2="512" y2="500" gradientUnits="userSpaceOnUse">
      <stop offset="0" stop-color="#ffffff" stop-opacity=".09" />
      <stop offset="1" stop-color="#ffffff" stop-opacity="0" />
    </linearGradient>
  </defs>
  <rect x="100" y="100" width="824" height="824" rx="185" fill="url(#mac-bg)" />
  <rect x="100" y="100" width="824" height="500" rx="185" fill="url(#mac-sheen)" />
  <rect x="100.5" y="100.5" width="823" height="823" rx="184.5" stroke="url(#mac-rim)" stroke-width="2" />
  <svg x="177" y="192" width="640" height="640" viewBox="0 0 256 256">
  <defs>
    <linearGradient id="mac-v1l-cream" x1="80" y1="30" x2="190" y2="226" gradientUnits="userSpaceOnUse">
      <stop offset="0" stop-color="#faf0e2" />
      <stop offset=".6" stop-color="#f0dcc4" />
      <stop offset="1" stop-color="#e3c5a4" />
    </linearGradient>
    <linearGradient id="mac-v1l-coral" x1="62" y1="178" x2="98" y2="226" gradientUnits="userSpaceOnUse">
      <stop offset="0" stop-color="#ff8a72" />
      <stop offset=".5" stop-color="#fa654a" />
      <stop offset="1" stop-color="#d63f25" />
    </linearGradient>
  </defs>
  <!-- Bowl -->
  <path d="M80 48 H132 C166 48 188 70 188 104 C188 138 166 160 132 160 H80" stroke="url(#mac-v1l-cream)" stroke-width="36" stroke-linecap="round" stroke-linejoin="round" />
  <!-- Stem -->
  <path d="M80 48 V198" stroke="url(#mac-v1l-cream)" stroke-width="36" stroke-linecap="round" />
  <!-- Coral foot: the priority accent -->
  <path d="M80 196 V208" stroke="url(#mac-v1l-coral)" stroke-width="36" stroke-linecap="round" />
</svg>
</svg>